# xmcd
# Copyright (C) 1995-1998 Ti Kan
#
# Track frame offsets:
#       150
#       20236
#       38994
#       50616
#       68851
#       76151
#       92201
#       107650
#
# Disc length: 1617 seconds
#
# Revision: 0
# Processed by: cddbd v1.5.2PL0 Copyright (c) Steve Scherf et al.
# Submitted via: CD-Transfer v1.0
#
DISCID=67064f08
DTITLE=Thomas - Es Paar Lieder [CD)
DYEAR=08
DGENRE=
TTITLE0=Erfüllt Mit Liebi (Radio Edit)
TTITLE1=Prinzessin Ganz In Wis (Radio Edit)
TTITLE2=Saionara (Radio Edit)
TTITLE3=Picture Of A Child (Radio Edit)
TTITLE4=Abschiedsbrief (Radio Edit)
TTITLE5=Lords For Apart (Radio Edit)
TTITLE6=Zeig Wie'd Würklich Bisch (Radio Edit)
TTITLE7=Schlaf Guet Gian (Radio Edit)
EXTD=
EXTT0=
EXTT1=
EXTT2=
EXTT3=
EXTT4=
EXTT5=
EXTT6=
EXTT7=
PLAYORDER=
